    <svg xmlns="http://www.w3.org/2000/svg" width="142" height="28" viewBox="0 0 142 28" fill="none">
        <g clip-path="url(#clip0_2_57)">
            <path
                d="M11.4155 4.77985e-06H0.694918C0.603557 -0.000333871 0.513032 0.0173256 0.428561 0.0519656C0.344089 0.0866055 0.26734 0.137541 0.202738 0.201836C0.138136 0.266132 0.0869577 0.342516 0.0521525 0.426587C0.0173473 0.510657 -0.000396499 0.600752 -5.62325e-05 0.691679V26.9369C-0.000396499 27.0278 0.0173473 27.1179 0.0521525 27.202C0.0869577 27.286 0.138136 27.3624 0.202738 27.4267C0.26734 27.491 0.344089 27.5419 0.428561 27.5766C0.513032 27.6112 0.603557 27.6289 0.694918 27.6285H4.19553C4.28689 27.6289 4.37741 27.6112 4.46188 27.5766C4.54636 27.5419 4.62311 27.491 4.68771 27.4267C4.75231 27.3624 4.80349 27.286 4.83829 27.202C4.8731 27.1179 4.89084 27.0278 4.8905 26.9369V17.8939H11.4155C13.7727 17.8943 16.0359 16.9739 17.7183 15.3306C19.4006 13.6874 20.3678 11.4526 20.4116 9.10705V8.96615C20.414 7.78912 20.183 6.62318 19.7319 5.53513C19.2808 4.44707 18.6184 3.45829 17.7828 2.6254C16.9471 1.79251 15.9546 1.13189 14.862 0.681386C13.7694 0.230876 12.5982 -0.000671525 11.4155 4.77985e-06ZM15.5082 8.95334C15.509 9.4868 15.4041 10.0152 15.1993 10.5082C14.9946 11.0012 14.6941 11.4491 14.3151 11.8263C13.9361 12.2036 13.486 12.5026 12.9907 12.7064C12.4953 12.9101 11.9644 13.0146 11.4284 13.0137H4.90337V4.89296H11.4155C12.4861 4.89415 13.5134 5.31356 14.2764 6.06096C15.0394 6.80835 15.4771 7.82398 15.4953 8.8893L15.5082 8.95334Z"
                fill="#1B1D22"
            />
            <path
                d="M69.5103 8.13365H65.4048C65.2948 8.13315 65.1863 8.1584 65.0879 8.20735C64.9895 8.2563 64.9041 8.32758 64.8385 8.41545L61.132 13.539C61.1064 13.5747 61.0726 13.6037 61.0334 13.6238C60.9943 13.6439 60.9508 13.6544 60.9068 13.6544C60.8627 13.6544 60.8193 13.6439 60.7801 13.6238C60.7409 13.6037 60.7072 13.5747 60.6816 13.539L56.975 8.41545C56.9105 8.3265 56.8253 8.25442 56.7267 8.20535C56.628 8.15628 56.519 8.13168 56.4087 8.13365H52.3033C52.1763 8.13416 52.0519 8.16925 51.9436 8.23513C51.8353 8.30101 51.7472 8.39516 51.6888 8.50736C51.6305 8.61955 51.6041 8.74551 51.6126 8.87157C51.6211 8.99762 51.6641 9.11896 51.737 9.2224L57.6957 17.4584C57.7835 17.5748 57.8309 17.7164 57.8309 17.8619C57.8309 18.0074 57.7835 18.149 57.6957 18.2654L51.7112 26.5527C51.6364 26.6557 51.5918 26.7773 51.5823 26.9041C51.5729 27.0308 51.599 27.1577 51.6577 27.2705C51.7164 27.3834 51.8054 27.4778 51.9148 27.5433C52.0243 27.6088 52.1498 27.6428 52.2775 27.6414H56.383C56.493 27.6419 56.6015 27.6167 56.6999 27.5677C56.7983 27.5188 56.8837 27.4475 56.9493 27.3596L70.0894 9.2224C70.1611 9.11765 70.2026 8.99544 70.2096 8.86893C70.2167 8.74243 70.1889 8.61641 70.1293 8.50443C70.0698 8.39245 69.9807 8.29876 69.8716 8.23343C69.7625 8.1681 69.6376 8.1336 69.5103 8.13365Z"
                fill="#1B1D22"
            />
            <path
                d="M26.4734 4.77985e-06H22.9727C22.8814 -0.000333871 22.7909 0.0173256 22.7064 0.0519656C22.6219 0.0866055 22.5452 0.137541 22.4806 0.201836C22.416 0.266132 22.3648 0.342516 22.33 0.426587C22.2952 0.510657 22.2774 0.600752 22.2778 0.691679V26.9369C22.2774 27.0278 22.2952 27.1179 22.33 27.202C22.3648 27.286 22.416 27.3624 22.4806 27.4267C22.5452 27.491 22.6219 27.5419 22.7064 27.5766C22.7909 27.6112 22.8814 27.6289 22.9727 27.6285H26.4734C26.5647 27.6289 26.6552 27.6112 26.7397 27.5766C26.8242 27.5419 26.9009 27.491 26.9655 27.4267C27.0301 27.3624 27.0813 27.286 27.1161 27.202C27.1509 27.1179 27.1687 27.0278 27.1683 26.9369V0.691679C27.167 0.50865 27.0933 0.333498 26.9633 0.204073C26.8333 0.0746489 26.6573 0.00134571 26.4734 4.77985e-06Z"
                fill="#1B1D22"
            />
            <path
                d="M49.1501 8.10794H46.4475C46.3561 8.1076 46.2656 8.12526 46.1811 8.1599C46.0966 8.19454 46.0199 8.24547 45.9553 8.30977C45.8907 8.37407 45.8395 8.45045 45.8047 8.53452C45.7699 8.61859 45.7521 8.70869 45.7525 8.79961L45.6624 9.59376V9.60657C45.4565 9.49129 45.1219 9.29916 44.9803 9.20949C43.3768 8.23263 41.5322 7.71824 39.6522 7.72368C34.0151 7.72368 29.4206 12.2196 29.4206 17.8298C29.4219 19.6361 29.9063 21.4095 30.8238 22.9679C31.7414 24.5263 33.0591 25.8136 34.6418 26.6977C36.2245 27.5817 38.015 28.0307 39.8296 27.9984C41.6442 27.9662 43.4175 27.4539 44.9674 26.5142L45.4693 26.2067L45.4951 26.2964V26.9368C45.4948 27.0278 45.5125 27.1179 45.5473 27.2019C45.5821 27.286 45.6333 27.3624 45.6979 27.4267C45.7625 27.491 45.8392 27.5419 45.9237 27.5766C46.0082 27.6112 46.0987 27.6289 46.1901 27.6285H49.1759C49.2672 27.6289 49.3578 27.6112 49.4422 27.5766C49.5267 27.5419 49.6035 27.491 49.6681 27.4267C49.7327 27.3624 49.7838 27.286 49.8186 27.2019C49.8535 27.1179 49.8712 27.0278 49.8709 26.9368V8.79961C49.8614 8.6148 49.7817 8.44049 49.6478 8.31205C49.514 8.1836 49.3361 8.11063 49.1501 8.10794ZM45.4951 19.4437C45.4802 19.5068 45.4716 19.5711 45.4693 19.6358V19.5334C45.4179 19.6871 45.3664 19.8408 45.302 19.9945C44.9168 20.9424 44.2796 21.7681 43.4589 22.3832C42.6382 22.9983 41.6648 23.3796 40.643 23.4862C39.6212 23.5928 38.5895 23.4207 37.6585 22.9885C36.7274 22.5562 35.9321 21.8799 35.3576 21.0322C34.7832 20.1844 34.4513 19.1971 34.3975 18.176C34.3438 17.1549 34.5701 16.1384 35.0524 15.2356C35.5347 14.3327 36.2546 13.5774 37.1352 13.0506C38.0158 12.5239 39.0237 12.2454 40.0511 12.2452C41.1735 12.2484 42.27 12.5805 43.2038 13.2001C44.1376 13.8197 44.8674 14.6993 45.302 15.7292C45.3664 15.8829 45.4179 16.0366 45.4693 16.1903V16.1262C45.4716 16.1783 45.4803 16.2299 45.4951 16.2799C45.644 16.7922 45.722 17.3222 45.7267 17.8554C45.7311 18.3935 45.653 18.9291 45.4951 19.4437Z"
                fill="#1B1D22"
            />
            <path
                d="M83.2167 4.77985e-06H72.4961C72.4048 -0.000333871 72.3142 0.0173256 72.2298 0.0519656C72.1453 0.0866055 72.0685 0.137541 72.0039 0.201836C71.9393 0.266132 71.8882 0.342516 71.8534 0.426587C71.8186 0.510657 71.8008 0.600752 71.8012 0.691679V26.9369C71.8008 27.0278 71.8186 27.1179 71.8534 27.202C71.8882 27.286 71.9393 27.3624 72.0039 27.4267C72.0685 27.491 72.1453 27.5419 72.2298 27.5766C72.3142 27.6112 72.4048 27.6289 72.4961 27.6285H75.9967C76.0881 27.6289 76.1786 27.6112 76.2631 27.5766C76.3476 27.5419 76.4243 27.491 76.4889 27.4267C76.5535 27.3624 76.6047 27.286 76.6395 27.202C76.6743 27.1179 76.6921 27.0278 76.6917 26.9369V17.8939H83.2167C85.5739 17.8943 87.8371 16.9739 89.5195 15.3306C91.2018 13.6874 92.169 11.4526 92.2128 9.10705V8.96615C92.214 7.78945 91.9822 6.62404 91.5307 5.53652C91.0792 4.449 90.4168 3.46068 89.5813 2.62803C88.7459 1.79538 87.7538 1.13472 86.6618 0.683789C85.5697 0.232863 84.3991 0.000508997 83.2167 4.77985e-06ZM87.2965 8.95334C87.2973 9.4868 87.1924 10.0152 86.9877 10.5082C86.7829 11.0012 86.4825 11.4491 86.1035 11.8263C85.7244 12.2036 85.2744 12.5026 84.779 12.7064C84.2836 12.9101 83.7527 13.0146 83.2167 13.0137H76.6917V4.89296H83.2167C84.2873 4.89415 85.3146 5.31356 86.0776 6.06096C86.8406 6.80835 87.2783 7.82398 87.2965 8.8893V8.95334Z"
                fill="#1B1D22"
            />
            <path
                d="M141.311 8.13365H137.206C137.096 8.13315 136.987 8.1584 136.889 8.20735C136.791 8.2563 136.705 8.32758 136.64 8.41545L132.933 13.539C132.908 13.5747 132.874 13.6037 132.835 13.6238C132.795 13.6439 132.752 13.6544 132.708 13.6544C132.664 13.6544 132.62 13.6439 132.581 13.6238C132.542 13.6037 132.508 13.5747 132.483 13.539L128.776 8.41545C128.712 8.3265 128.626 8.25442 128.528 8.20535C128.429 8.15628 128.32 8.13168 128.21 8.13365H124.104C123.977 8.13416 123.853 8.16925 123.745 8.23513C123.636 8.30101 123.548 8.39516 123.49 8.50736C123.432 8.61955 123.405 8.74551 123.414 8.87157C123.422 8.99762 123.465 9.11896 123.538 9.2224L129.497 17.4584C129.585 17.5748 129.632 17.7164 129.632 17.8619C129.632 18.0074 129.585 18.149 129.497 18.2654L123.487 26.5527C123.412 26.6557 123.367 26.7773 123.358 26.9041C123.348 27.0308 123.374 27.1577 123.433 27.2705C123.492 27.3834 123.581 27.4778 123.69 27.5433C123.8 27.6088 123.925 27.6428 124.053 27.6414H128.158C128.268 27.6419 128.377 27.6167 128.475 27.5677C128.574 27.5188 128.659 27.4475 128.725 27.3596L141.865 9.2224C141.94 9.12065 141.986 8.99997 141.997 8.87385C142.008 8.74773 141.983 8.62112 141.925 8.50818C141.868 8.39524 141.78 8.3004 141.672 8.23426C141.563 8.16813 141.439 8.13329 141.311 8.13365Z"
                fill="#1B1D22"
            />
            <path
                d="M98.2744 4.77985e-06H94.7738C94.6825 -0.000333871 94.5919 0.0173256 94.5075 0.0519656C94.423 0.0866055 94.3463 0.137541 94.2817 0.201836C94.2171 0.266132 94.1659 0.342516 94.1311 0.426587C94.0963 0.510657 94.0785 0.600752 94.0789 0.691679V26.9369C94.0785 27.0278 94.0963 27.1179 94.1311 27.202C94.1659 27.286 94.2171 27.3624 94.2817 27.4267C94.3463 27.491 94.423 27.5419 94.5075 27.5766C94.5919 27.6112 94.6825 27.6289 94.7738 27.6285H98.2744C98.3658 27.6289 98.4563 27.6112 98.5408 27.5766C98.6253 27.5419 98.702 27.491 98.7666 27.4267C98.8312 27.3624 98.8824 27.286 98.9172 27.202C98.952 27.1179 98.9697 27.0278 98.9694 26.9369V0.691679C98.9681 0.50865 98.8944 0.333498 98.7644 0.204073C98.6343 0.0746489 98.4583 0.00134571 98.2744 4.77985e-06Z"
                fill="#1B1D22"
            />
            <path
                d="M120.938 8.10794H118.236C118.144 8.1076 118.054 8.12526 117.969 8.1599C117.885 8.19454 117.808 8.24547 117.744 8.30977C117.679 8.37407 117.628 8.45045 117.593 8.53452C117.558 8.61859 117.54 8.70869 117.541 8.79961L117.451 9.59376V9.60657C117.245 9.49129 116.91 9.29916 116.769 9.20949C115.165 8.23263 113.32 7.71824 111.44 7.72368C105.803 7.72368 101.209 12.2196 101.209 17.8298C101.21 19.6361 101.695 21.4095 102.612 22.9679C103.53 24.5263 104.847 25.8136 106.43 26.6977C108.013 27.5817 109.803 28.0307 111.618 27.9984C113.432 27.9662 115.206 27.4539 116.756 26.5142L117.258 26.2067L117.283 26.2964V26.9368C117.283 27.0278 117.301 27.1179 117.336 27.2019C117.37 27.286 117.422 27.3624 117.486 27.4267C117.551 27.491 117.627 27.5419 117.712 27.5766C117.796 27.6112 117.887 27.6289 117.978 27.6285H120.964C121.056 27.6289 121.146 27.6112 121.23 27.5766C121.315 27.5419 121.392 27.491 121.456 27.4267C121.521 27.3624 121.572 27.286 121.607 27.2019C121.642 27.1179 121.659 27.0278 121.659 26.9368V8.79961C121.65 8.6148 121.57 8.44049 121.436 8.31205C121.302 8.1836 121.124 8.11063 120.938 8.10794ZM117.296 19.4437C117.281 19.5068 117.273 19.5711 117.27 19.6358V19.5334C117.219 19.6871 117.168 19.8408 117.103 19.9945C116.718 20.9424 116.081 21.7681 115.26 22.3832C114.439 22.9983 113.466 23.3796 112.444 23.4862C111.422 23.5928 110.391 23.4207 109.46 22.9885C108.529 22.5562 107.733 21.8799 107.159 21.0322C106.584 20.1844 106.252 19.1971 106.199 18.176C106.145 17.1549 106.371 16.1384 106.854 15.2356C107.336 14.3327 108.056 13.5774 108.936 13.0506C109.817 12.5239 110.825 12.2454 111.852 12.2452C112.975 12.2484 114.071 12.5805 115.005 13.2001C115.939 13.8197 116.669 14.6993 117.103 15.7292C117.168 15.8829 117.219 16.0366 117.27 16.1903V16.1262C117.273 16.1783 117.281 16.2299 117.296 16.2799C117.445 16.7922 117.523 17.3222 117.528 17.8554C117.52 18.3926 117.442 18.9264 117.296 19.4437Z"
                fill="#1B1D22"
            />
        </g>
        <defs>
            <clipPath id="clip0_2_57">
                <rect width="142" height="28" fill="white" />
            </clipPath>
        </defs>
    </svg>